<svg width="120" height="120" viewBox="0 0 120 120" fill="none" xmlns="http://www.w3.org/2000/svg">
<path d="M60 7C40.7027 7 25 20.8058 25 37.7755C25 46.753 30.894 55.9965 36.5868 64.9285C41.492 72.6163 46.1768 79.954 47.6398 87.5H72.3585C73.825 79.9522 78.5045 72.6145 83.408 64.9285C89.1042 55.9965 95 46.753 95 37.7755C95 20.8058 79.2973 7 60 7ZM60 55.4295C63.381 59.0782 66.566 60.1632 68.022 60.4852C67.8032 61.4565 67.6055 62.405 67.3763 63.3395C66.9458 65.2505 66.5257 67.1125 66.118 68.901C64.9818 73.9278 63.8764 78.9615 62.8018 84.0017H57.1965C56.1193 78.962 55.0139 73.9283 53.8803 68.901L52.6185 63.3395C52.3892 62.405 52.1915 61.4565 51.9763 60.4852C53.434 60.1632 56.619 59.0782 60 55.4295ZM59.0568 51.6092C58.7225 50.8865 58.6017 50.148 58.9447 49.6037C59.2317 49.1715 59.6115 48.9248 60.0017 48.9248C60.392 48.9248 60.7682 49.1715 61.0587 49.6037C61.4 50.148 61.281 50.8847 60.9468 51.6092C60.7 52.1202 60.3623 52.6067 60 53.0775C59.634 52.6232 59.3177 52.131 59.0568 51.6092ZM80.4593 63.0438C75.939 70.1295 71.641 76.8652 69.604 84H63.9235C65.1829 79.0688 66.4155 74.1308 67.6212 69.1862C68.0517 67.3995 68.5067 65.5498 68.9705 63.6423C69.2295 62.6273 69.4587 61.5808 69.7125 60.5395C71.0355 60.4503 72.3007 60.0373 73.2877 59.1325C74.2992 58.1368 74.826 56.8348 74.5898 55.4453C74.483 54.7803 73.9843 53.9192 73.0218 53.6252C72.5511 53.4665 72.0432 53.4549 71.5658 53.592C71.1682 53.7393 70.81 53.9764 70.5193 54.285C69.5865 55.321 69.247 56.3552 68.8655 57.3807C68.687 57.897 68.54 58.4133 68.4 58.9225C68.4 58.9225 66.9125 59.0362 63.731 56.896C61.9635 55.7077 61.4542 54.8485 60.9415 54.2798C61.4945 53.6655 62.0247 52.9917 62.436 52.1745C62.6547 51.7177 62.8385 51.2225 62.9015 50.666C62.9645 50.1095 62.8612 49.4795 62.5427 48.937C62.2027 48.3355 61.6692 47.8668 61.029 47.607C60.7105 47.4933 60.3552 47.439 60 47.439C59.6448 47.439 59.286 47.4915 58.971 47.607C58.3301 47.8672 57.7956 48.3357 57.4538 48.937C57.1353 49.4813 57.0338 50.1095 57.095 50.666C57.1656 51.1916 57.3241 51.7015 57.564 52.1745C57.9735 52.9917 58.5037 53.6673 59.0585 54.2798C58.5457 54.8485 58.033 55.7077 56.2655 56.896C53.084 59.038 51.5965 58.9225 51.5965 58.9225C51.4592 58.4037 51.3052 57.8895 51.1345 57.3807C50.7478 56.3552 50.4135 55.321 49.4808 54.285C49.1903 53.9761 48.832 53.7389 48.4343 53.592C47.9568 53.4549 47.4489 53.4665 46.9783 53.6252C46.0105 53.9192 45.5153 54.7803 45.4103 55.4453C45.1705 56.8348 45.7007 58.1368 46.7122 59.1325C47.7027 60.0373 48.9645 60.4503 50.2875 60.5395C50.5378 61.5825 50.7653 62.6273 51.0295 63.6423L52.3788 69.1862C53.5855 74.1306 54.8181 79.0686 56.0765 84H50.396C48.3625 76.8723 44.0627 70.1365 39.5302 63.0367C34.107 54.5265 28.5 45.7275 28.5 37.7755C28.5 22.736 42.6295 10.5 60 10.5C77.3688 10.5 91.5 22.736 91.5 37.7755C91.5 45.731 85.8878 54.5318 80.4593 63.0438ZM70.1482 58.912C70.2515 58.5532 70.3565 58.1893 70.479 57.8393C70.8097 56.917 71.2315 55.9142 71.8055 55.314C71.942 55.16 72.082 55.0987 72.1537 55.0585C72.1537 55.0655 72.3252 55.0375 72.4337 55.0918C72.628 55.1408 72.8135 55.342 72.8852 55.7287C73.0252 56.4777 72.67 57.442 72.0278 58.0458C71.5763 58.4745 70.8797 58.7755 70.1482 58.912ZM49.8482 58.912C49.1167 58.7755 48.4203 58.4745 47.9723 58.044C47.3265 57.4402 46.9747 56.476 47.1147 55.727C47.1865 55.3385 47.3703 55.139 47.5663 55.09C47.6765 55.0375 47.8463 55.0638 47.8463 55.0568C47.9145 55.097 48.058 55.16 48.1875 55.3123C48.765 55.9143 49.185 56.9152 49.5175 57.8375C49.64 58.1892 49.7467 58.5532 49.8482 58.912ZM50.41 90.2247H48.66V96.5248H50.004V102.127H51.348V107.728H53.5985C54.6572 110.229 57.1073 112 60 112C62.891 112 65.3393 110.229 66.4015 107.725H68.7238V102.088L68.9198 102.016L70.066 101.596V96.481L70.1798 96.4443L71.4065 96.0592V90.223L50.41 90.2247Z" fill="#2C2C04"/>
</svg>
