<svg width="71" height="70" viewBox="0 0 71 70" fill="none" xmlns="http://www.w3.org/2000/svg">
<path d="M26.3728 69.6517L24.9798 58.5075C24.2252 58.2172 23.5136 57.869 22.845 57.4627C22.1763 57.0564 21.5239 56.6211 20.8878 56.1567L10.5271 60.51L0.949951 43.9677L9.91761 37.1766C9.85957 36.7703 9.83055 36.3779 9.83055 35.9995V33.6522C9.83055 33.2738 9.85957 32.8814 9.91761 32.4751L0.949951 25.6841L10.5271 9.14179L20.8878 13.495C21.5262 13.0307 22.1937 12.5954 22.8903 12.1891C23.5868 11.7828 24.2833 11.4345 24.9798 11.1443L26.3728 0H45.5271L46.9201 11.1443C47.6747 11.4345 48.3863 11.7828 49.0549 12.1891C49.7236 12.5954 50.376 13.0307 51.0121 13.495L61.3728 9.14179L70.95 25.6841L61.9823 32.4751C62.0403 32.8814 62.0694 33.2738 62.0694 33.6522V35.9995C62.0694 36.3779 62.0113 36.7703 61.8952 37.1766L70.8629 43.9677L61.2858 60.51L51.0121 56.1567C50.3737 56.6211 49.7062 57.0564 49.0097 57.4627C48.3131 57.869 47.6166 58.2172 46.9201 58.5075L45.5271 69.6517H26.3728ZM36.1241 47.0149C39.4906 47.0149 42.3637 45.825 44.7435 43.4453C47.1233 41.0655 48.3131 38.1924 48.3131 34.8259C48.3131 31.4594 47.1233 28.5862 44.7435 26.2065C42.3637 23.8267 39.4906 22.6368 36.1241 22.6368C32.6995 22.6368 29.8113 23.8267 27.4594 26.2065C25.1075 28.5862 23.9327 31.4594 23.935 34.8259C23.935 38.1924 25.1098 41.0655 27.4594 43.4453C29.809 45.825 32.6972 47.0149 36.1241 47.0149Z" fill="#2C2C04"/>
</svg>
